<svg xmlns="http://www.w3.org/2000/svg" id="Ebene_2" viewBox="0 0 283.5 316.4"><style>.st0{fill:#FFFFFF;} .st1{fill:#F0F0F0;} .st2{fill:url(#SVGID_1_);stroke:#6F757A;stroke-width:0.1;stroke-miterlimit:10;} .st3{fill:#040408;} .st4{fill:url(#SVGID_2_);} .st5{fill:#A6A8AB;} .st6{fill:url(#SVGID_3_);} .st7{fill:url(#SVGID_4_);} .st8{fill:url(#SVGID_5_);} .st9{fill:url(#SVGID_6_);} .st10{fill:url(#SVGID_7_);} .st11{fill:url(#SVGID_8_);} .st12{fill:url(#SVGID_9_);} .st13{fill:url(#SVGID_10_);} .st14{fill:#216C9D;} .st15{fill:#525355;} .st16{fill:#F1F1F2;} .st17{fill:#75C1EC;} .st18{fill:url(#SVGID_11_);} .st19{fill:url(#SVGID_12_);} .st20{fill:#BDD7E7;} .st21{fill:#14527A;}</style><path d="M.5 221.2H283v94.2H.5z" class="st0"/><path d="M282.5 221.7v93.2H1v-93.2h281.5m1-1H0v95.2h283.5v-95.2z" class="st1"/><path d="M.5.5H283v209.7H.5z" class="st0"/><path d="M282.5 1v208.7H1V1h281.5m1-1H0v210.7h283.5V0z" class="st1"/><path d="M47.2 290.2v-18h6.2c3.2 0 5.5.8 7 2.3 1.5 1.5 2.3 3.7 2.3 6.7 0 6.1-3.1 9.1-9.3 9.1h-6.2zm3.9-3.1h2.4c1.8 0 3.1-.6 4-1.7.8-1 1.3-2.4 1.3-4.3 0-2.1-.5-3.6-1.5-4.6-.9-.8-2.1-1.2-3.6-1.2h-2.5v11.8zm14.2 3.1v-12.6h3.4l.2 2.2c.2-.6.5-1 .8-1.4.6-.7 1.3-1 2.3-1 .4 0 .8.1 1.3.2l-.3 3c-.6-.1-1-.1-1.4-.1-.9 0-1.6.3-2.1 1-.5.6-.7 1.5-.7 2.5v6.2h-3.5zm9.7-14.9v-3.1h3.6v3.1H75zm0 14.9v-12.6h3.6v12.6H75zm9.8 0l-4.5-12.6h3.9l2.7 9.2 2.8-9.2h3.8L89 290.2h-4.2zM95 275.3v-3.1h3.6v3.1H95zm0 14.9v-12.6h3.6v12.6H95zm6.8 0v-12.6h3.5l.2 1.8c.9-1.5 2.2-2.2 4.1-2.2 2.8 0 4.2 1.6 4.2 4.7v8.4h-3.6v-7.9c0-1.5-.7-2.3-2-2.3-.8 0-1.4.3-1.9.9-.5.7-.8 1.6-.8 2.8v6.5h-3.7zm14.8 2.2l3.1-1.2c.5.9 1.4 1.3 2.6 1.3 2.1 0 3.2-.9 3.2-2.8V288c-.4.6-.9 1-1.4 1.3-.7.4-1.6.6-2.6.6-1.6 0-2.8-.4-3.8-1.3-1.1-1.1-1.6-2.7-1.6-4.8 0-2 .4-3.6 1.2-4.7 1-1.3 2.4-2 4.3-2 1.8 0 3.1.7 3.9 2l.2-1.6h3.4v11.7c0 3.9-2.2 5.8-6.5 5.8-1.7 0-3.1-.3-4.1-.8-1-.3-1.6-1-1.9-1.8zm6-12.5c-1.9 0-2.8 1.2-2.8 3.6 0 2.4 1 3.7 2.9 3.7s2.8-1.2 2.8-3.7c0-2.4-1-3.6-2.9-3.6zm15.7 10.3v-18h5.2l4.4 13.4 4.3-13.4h5.1v18h-3.7v-12.9l-4.3 12.9h-3.2l-4.3-12.9v12.9h-3.5zm29.8-8.1v-.5c0-1.2-.7-1.8-2.1-1.8-.8 0-1.4.2-1.9.6-.2.2-.4.5-.6 1l-3.1-.8c.2-.8.7-1.5 1.4-2 1.1-.8 2.5-1.3 4.4-1.3 2 0 3.4.4 4.3 1.2.8.7 1.1 1.8 1.1 3.2v6c0 1 .2 1.9.5 2.7h-3.3c-.1-.5-.2-.9-.3-1.3-.7.6-1.3 1.1-1.9 1.3-.7.3-1.5.4-2.5.4-1.3 0-2.3-.3-3.1-.9-.8-.7-1.2-1.7-1.2-2.9 0-1.5.5-2.6 1.6-3.3.7-.4 1.7-.7 3-.9l3.7-.7zm0 2.2l-2.6.4c-1.4.2-2.2.9-2.2 1.9 0 .5.1.8.4 1.1.3.3.8.4 1.3.4.8 0 1.5-.2 2-.6.6-.4.9-1 .9-1.8v-1.4zm18-3l-3.4.8c-.4-1.5-1.3-2.2-2.5-2.2-.9 0-1.7.4-2.1 1.2-.4.7-.6 1.6-.6 2.8 0 1.2.2 2.2.7 2.9.5.7 1.1 1 2 1 1.4 0 2.3-.8 2.6-2.5l3.4.9c-.9 3-3 4.4-6.1 4.4-1.9 0-3.4-.5-4.5-1.6-1.2-1.2-1.8-2.9-1.8-5 0-2 .5-3.6 1.5-4.8 1.1-1.4 2.8-2.1 4.9-2.1 3.2 0 5.2 1.4 5.9 4.2zm2.1 8.9v-18h3.6v7.1c.9-1.4 2.3-2.1 4.2-2.1 2.8 0 4.2 1.6 4.2 4.7v8.4h-3.6v-7.9c0-1.5-.7-2.3-2-2.3-.8 0-1.4.3-1.9.9-.5.7-.8 1.6-.8 2.8v6.5h-3.7zm15.1-14.9v-3.1h3.6v3.1h-3.6zm0 14.9v-12.6h3.6v12.6h-3.6zm6.7 0v-12.6h3.5l.2 1.8c.9-1.5 2.2-2.2 4.1-2.2 2.8 0 4.2 1.6 4.2 4.7v8.4h-3.6v-7.9c0-1.5-.7-2.3-2-2.3-.8 0-1.4.3-1.9.9-.5.7-.8 1.6-.8 2.8v6.5H210zm27-5.4h-9c.1 2.1 1.1 3.1 2.9 3.1 1.3 0 2.2-.6 2.7-1.7l3.1 1.4c-1 2-3 3-5.9 3-1.9 0-3.4-.5-4.6-1.6-1.2-1.2-1.9-2.9-1.9-5.1 0-2 .5-3.6 1.5-4.8 1.1-1.3 2.7-2 4.8-2 1.5 0 2.7.3 3.7.9 1.7 1.1 2.5 3 2.5 5.7v1.1zm-9-2.2h5.3c-.1-1.9-1-2.9-2.7-2.9-1.4.1-2.3 1-2.6 2.9zM72.4 260v-14.8h-6.1V242h16.1v3.2h-6.1V260h-3.9zm11.9 0v-18h3.6v7.1c.9-1.4 2.3-2.1 4.2-2.1 2.8 0 4.2 1.6 4.2 4.7v8.4h-3.6v-7.9c0-1.5-.7-2.3-2-2.3-.8 0-1.4.3-1.9.9-.5.7-.8 1.6-.8 2.8v6.5h-3.7zm26.9-5.5h-9c.1 2.1 1.1 3.1 2.9 3.1 1.3 0 2.2-.6 2.7-1.7l3.1 1.4c-1 2-3 3-5.9 3-1.9 0-3.4-.5-4.6-1.6-1.2-1.2-1.9-2.9-1.9-5.1 0-2 .5-3.6 1.5-4.8 1.1-1.3 2.7-2 4.8-2 1.5 0 2.7.3 3.7.9 1.7 1.1 2.5 3 2.5 5.7v1.1zm-9-2.1h5.3c-.1-1.9-1-2.9-2.7-2.9-1.4 0-2.3 1-2.6 2.9zm17.3-10.5h3.9v11.3c0 2.6 1.2 4 3.7 4s3.7-1.3 3.7-4v-11.3h3.9v11c0 2.4-.7 4.2-2 5.5-1.3 1.3-3.2 1.9-5.7 1.9-2.6 0-4.5-.7-5.8-2.1-1.2-1.3-1.8-3.1-1.8-5.4v-10.9zm18.4 18.1v-18h3.6v18h-3.6zm7.4-10h-1.6v-2.6h1.6v-3.6h3.6v3.6h2.7v2.6H149v5.9c0 1 .5 1.5 1.4 1.5.4 0 .8 0 1.3-.1l.3 2.6c-1 .2-2 .3-3.1.3-1.2 0-2-.3-2.6-.9-.6-.6-.9-1.6-.9-2.9V250zm8.8-5v-3.1h3.6v3.1h-3.6zm0 15v-12.6h3.6V260h-3.6zm6.7 0v-12.6h3.5l.2 1.8c.8-1.5 2.1-2.2 3.8-2.2 1.7 0 2.9.8 3.5 2.3.9-1.5 2.2-2.3 4.1-2.3 2.6 0 4 1.5 4 4.6v8.5h-3.6v-7.9c0-1.5-.6-2.3-1.7-2.3-.7 0-1.2.3-1.6.9-.4.7-.6 1.6-.6 2.9v6.5h-3.6v-7.9c0-1.5-.6-2.3-1.7-2.3-.7 0-1.2.3-1.6.9-.4.6-.7 1.6-.7 2.9v6.5h-4zm29.4-8.2v-.5c0-1.2-.7-1.8-2.1-1.8-.8 0-1.4.2-1.9.6-.2.2-.4.5-.6 1l-3.1-.8c.2-.8.7-1.5 1.4-2 1.1-.8 2.5-1.3 4.4-1.3 2 0 3.4.4 4.3 1.2.8.7 1.1 1.8 1.1 3.2v6c0 1 .2 1.9.5 2.7H191c-.1-.5-.2-.9-.3-1.3-.7.6-1.3 1.1-1.9 1.3-.7.3-1.5.4-2.5.4-1.3 0-2.3-.3-3.1-.9-.8-.7-1.2-1.7-1.2-2.9 0-1.5.5-2.6 1.6-3.3.7-.4 1.7-.7 3-.9l3.6-.7zm0 2.3l-2.6.4c-1.4.2-2.2.9-2.2 1.9 0 .5.1.8.4 1.1.3.3.8.4 1.3.4.8 0 1.5-.2 2-.6.6-.4.9-1 .9-1.8v-1.4zm7.1-4.1h-1.6v-2.6h1.6v-3.6h3.6v3.6h2.7v2.6H201v5.9c0 1 .5 1.5 1.4 1.5.4 0 .8 0 1.3-.1l.3 2.6c-1 .2-2 .3-3.1.3-1.2 0-2-.3-2.6-.9-.6-.6-.9-1.6-.9-2.9V250zm20.6 4.5h-9c.1 2.1 1.1 3.1 2.9 3.1 1.3 0 2.2-.6 2.7-1.7l3.1 1.4c-1 2-3 3-5.9 3-1.9 0-3.4-.5-4.6-1.6-1.2-1.2-1.9-2.9-1.9-5.1 0-2 .5-3.6 1.5-4.8 1.1-1.3 2.7-2 4.8-2 1.5 0 2.7.3 3.7.9 1.7 1.1 2.5 3 2.5 5.7v1.1zm-8.9-2.1h5.3c-.1-1.9-1-2.9-2.7-2.9-1.5 0-2.4 1-2.6 2.9z"/><g><linearGradient id="SVGID_1_" x1="86.0849" x2="197.5933" y1="50.2431" y2="161.7514" gradientUnits="userSpaceOnUse"><stop offset="0" stop-color="#EAEBEE"/><stop offset=".3408" stop-color="#9298A0"/><stop offset=".618" stop-color="#9298A0"/><stop offset="1" stop-color="#EAEBEE"/></linearGradient><circle cx="141.8" cy="106" r="78.8" class="st2"/><circle cx="141.8" cy="106.1" r="75.9" class="st3"/><radialGradient id="SVGID_2_" cx="98.2098" cy="295.4482" r="130.0718" gradientTransform="matrix(1 0 0 -1 0 315.754)" gradientUnits="userSpaceOnUse"><stop offset="0" stop-color="#CCD3E0"/><stop offset=".15" stop-color="#ACB2BD"/><stop offset=".57" stop-color="#51535F"/><stop offset=".86" stop-color="#171722"/><stop offset="1" stop-color="#040408"/></radialGradient><circle cx="141.8" cy="106.1" r="75.5" class="st4"/><ellipse cx="141.8" cy="106.1" class="st3" rx="50.6" ry="49.9"/><ellipse cx="141.8" cy="106.1" class="st5" rx="49.3" ry="49.1"/><linearGradient id="SVGID_3_" x1="173.9451" x2="173.9451" y1="253.8096" y2="207.2926" gradientUnits="userSpaceOnUse" gradientTransform="matrix(1 0 0 -1 -8 312.754)"><stop offset=".74" stop-color="#FFF"/><stop offset="1" stop-color="#E6E7E9"/></linearGradient><path d="M142.7 105.3h46.5c-.5-25.5-21-46.1-46.5-46.5v46.5z" class="st6"/><radialGradient id="SVGID_4_" cx="148.8661" cy="207.6379" r="46.2345" gradientTransform="matrix(1 0 0 -1 -8 312.754)" gradientUnits="userSpaceOnUse"><stop offset=".37" stop-color="#4C91CE"/><stop offset=".54" stop-color="#5B9BD3"/><stop offset=".84" stop-color="#81B5E2"/><stop offset="1" stop-color="#95C3E9"/></radialGradient><path d="M141 105.3V58.8c-25.5.5-46.1 21-46.5 46.5H141z" class="st7"/><linearGradient id="SVGID_5_" x1="125.7332" x2="125.7332" y1="205.786" y2="159.3318" gradientUnits="userSpaceOnUse" gradientTransform="matrix(1 0 0 -1 -8 312.754)"><stop offset=".47" stop-color="#FFF"/><stop offset=".99" stop-color="#D0D2D3"/></linearGradient><path d="M141 107H94.5c.5 25.5 21 46.1 46.5 46.5V107z" class="st8"/><radialGradient id="SVGID_6_" cx="150.3414" cy="206.1626" r="46.8623" gradientTransform="matrix(1 0 0 -1 -8 312.754)" gradientUnits="userSpaceOnUse"><stop offset=".29" stop-color="#4A8EC9"/><stop offset=".68" stop-color="#3B72A5"/><stop offset=".86" stop-color="#356494"/></radialGradient><path d="M142.7 107v46.5c25.5-.5 46.1-21 46.5-46.5h-46.5z" class="st9"/><path d="M144.9 54.2l5.1-13.9.2 14 4.7.8-.4-20.1-6.6-.8-5.3 14.3h.1l-5.3-14.3-6.6.8-.3 20.1 4.7-.8.2-14 5.1 13.9h4.4zm54.3 8.3l-6.8 9.9 10.7-5.3 2.3 4.1-17.1 7.8-2.6-4.1 6.5-9.8V65l-10.9 4.6-3.7-3.5 10.9-15 3.6 2.9-7.1 9.6 11-4.9c.1.1 3.2 3.8 3.2 3.8zm-92.7-2.8c-1.7-1.6-4.3-1.9-6.3-.6.3-1 .3-2 0-3-.5-1.1-1.2-2-2.2-2.8-2.7-2.2-5.5-.3-7.5 2.1L80.9 67l15.3 12.8 10-12.2c2.3-2.8 2.7-5.6.3-7.9zm-19.7 5.6l5.8-6.9c.9-.8 2.2-.8 3.1 0 .9.6 1.2 1.9.6 2.9-.1.1-.1.2-.2.3l-5.6 6.8-3.6-3.1h-.1zm16.2 1.1l-6.3 7.3-3.8-3.1 6.3-7.3c1-1 2.6-.9 3.6.1.7.7.9 2 .2 3z" class="st3"/><linearGradient id="SVGID_7_" x1="130.5623" x2="153.6639" y1="262.0932" y2="281.0201" gradientUnits="userSpaceOnUse" gradientTransform="matrix(1 0 0 -1 0 315.754)"><stop offset=".49" stop-color="#FFF"/><stop offset=".61" stop-color="#F5F5F6"/><stop offset=".81" stop-color="#DADCDC"/><stop offset="1" stop-color="#BBBDBF"/></linearGradient><path d="M143.9 53.5l5-13.9.2 14 4.7.8-.3-20.1-6.6-.8-5.3 14.3h.1l-5.3-14.3-6.6.8-.3 20.1 4.7-.8.2-14 5.1 13.9h4.4z" class="st10"/><linearGradient id="SVGID_8_" x1="88.1304" x2="115.5635" y1="247.3227" y2="247.3227" gradientUnits="userSpaceOnUse" gradientTransform="matrix(1 0 0 -1 -8 312.754)"><stop offset=".64" stop-color="#FFF"/><stop offset=".73" stop-color="#F5F5F6"/><stop offset=".87" stop-color="#DADCDC"/><stop offset="1" stop-color="#BBBDBF"/></linearGradient><path d="M105.9 59c-1.7-1.6-4.3-1.9-6.3-.6.3-1 .3-2 0-3-.5-1.1-1.2-2-2.2-2.8-2.7-2.2-5.5-.3-7.5 2.1l-9.7 11.6 15.2 12.8 10.2-12.2c2.3-2.7 2.7-5.5.3-7.9zm-19.8 5.6l5.8-6.9c.9-.8 2.2-.8 3.1 0 .9.6 1.2 1.9.6 2.9-.1.1-.1.2-.2.3l-5.8 6.9-3.5-3.2zm16.1 1.2l-6.1 7.1-3.8-3.1 6.3-7.3c1.1-.8 2.7-.6 3.5.5.6.8.7 1.9.1 2.8z" class="st11"/><linearGradient id="SVGID_9_" x1="176.7426" x2="204.4268" y1="251.097" y2="251.097" gradientUnits="userSpaceOnUse" gradientTransform="matrix(1 0 0 -1 0 315.754)"><stop offset=".23" stop-color="#FFF"/><stop offset=".41" stop-color="#F5F5F6"/><stop offset=".71" stop-color="#DADCDC"/><stop offset="1" stop-color="#BBBDBF"/></linearGradient><path d="M198.5 62.3l-7 9.7 10.7-5.3 2.3 4.1-17 7.8-2.6-4.1 6.5-9.8v-.1l-10.8 4.6-3.7-3.5 10.9-15 3.6 2.9-7.1 9.6 11.2-4.6 3 3.7z" class="st12"/><linearGradient id="SVGID_10_" x1="104.2057" x2="140.0821" y1="200.3598" y2="157.6721" gradientUnits="userSpaceOnUse" gradientTransform="matrix(1 0 0 -1 -8 312.754)"><stop offset="0" stop-color="#EFF0F2"/><stop offset=".13" stop-color="#E9EBED"/><stop offset=".3" stop-color="#D9DADC"/><stop offset=".48" stop-color="#BDBFC1"/><stop offset=".69" stop-color="#989A9C"/><stop offset=".91" stop-color="#696A6C"/><stop offset="1" stop-color="#525355"/></linearGradient><path d="M141 152.6c-25-.5-45.2-20.6-45.7-45.7h-.8c.5 25.5 21 46 46.5 46.5v-.8z" class="st13"/><path d="M140.1 58.7v45.7H94.4v.9H141V58.7h-.9z" class="st14"/><path d="M141 106.9v46.6l-.9-.9v-44.8l.9-.9z" class="st15"/><path d="M140.1 107.8H95.4l-.9-.9H141l-.9.9z" class="st16"/><path d="M143.3 153.5v-45.9h45.9v-.6h-46.5v46.6l.6-.1z" class="st17"/><linearGradient id="SVGID_11_" x1="154.8999" x2="166.1996" y1="243.5022" y2="210.1054" gradientUnits="userSpaceOnUse" gradientTransform="matrix(1 0 0 -1 0 315.754)"><stop offset="0" stop-color="#FFF"/><stop offset=".12" stop-color="#FAFAFA"/><stop offset=".28" stop-color="#E9E9E9"/><stop offset=".46" stop-color="#CECECF"/><stop offset=".65" stop-color="#A8A7A9"/><stop offset=".85" stop-color="#78797B"/><stop offset="1" stop-color="#525355"/></linearGradient><path d="M143.6 58.8v45.6h45.6v.9h-46.5V58.8h.9z" class="st18"/><linearGradient id="SVGID_12_" x1="157.393" x2="201.242" y1="256.8124" y2="212.3042" gradientUnits="userSpaceOnUse" gradientTransform="matrix(1 0 0 -1 -8 312.754)"><stop offset="0" stop-color="#EFF0F2"/><stop offset=".13" stop-color="#E9EBED"/><stop offset=".3" stop-color="#D9DADC"/><stop offset=".48" stop-color="#BDBFC1"/><stop offset=".69" stop-color="#989A9C"/><stop offset=".91" stop-color="#696A6C"/><stop offset="1" stop-color="#525355"/></linearGradient><path d="M188.4 104.5l.8.9c-.5-25.5-21-46.1-46.5-46.6l.9.9c24.3.9 43.8 20.3 44.8 44.6v.2z" class="st19"/><path d="M95.3 104.3c.9-24.4 20.5-43.9 44.9-44.8l.9-.9c-25.5.5-46.1 21-46.6 46.6l.8-.9z" class="st20"/><path d="M188.4 107.6c-.8 24.5-20.5 44.2-45 45l-.7.9c25.5-.5 46-21 46.5-46.5l-.8.6z" class="st21"/></g></svg>